<svg xmlns="http://www.w3.org/2000/svg" width="36" height="30" viewBox="0 0 36 30"><g><g><path fill="#fff" d="M35.217 8.972v17.926A3.102 3.102 0 0 1 32.122 30H3.095A3.102 3.102 0 0 1 0 26.898V8.972A3.102 3.102 0 0 1 3.095 5.87h29.027a3.102 3.102 0 0 1 3.095 3.102zm-25.38 2.344c0-.571-.463-1.034-1.033-1.034H5.503a1.033 1.033 0 1 0 0 2.068h3.301c.57 0 1.032-.463 1.032-1.034zm15.407 6.619c0-4.22-3.425-7.653-7.635-7.653s-7.635 3.433-7.635 7.653 3.425 7.653 7.635 7.653 7.635-3.433 7.635-7.653zM9.783 3.26l.356-1.688C10.332.662 11.185 0 12.167 0h11.536c.982 0 1.835.662 2.027 1.573l.357 1.688zm2.608 14.674a5.543 5.543 0 1 1 11.087 0 5.543 5.543 0 0 1-11.087 0z"/></g></g></svg>