<svg xmlns="http://www.w3.org/2000/svg" width="27" height="32" viewBox="0 0 27 32"><g><g><g><path fill="#fff" d="M12.94 0h.042a2.56 2.56 0 0 1 2.515 2.515v1.282l.117.035c3.802 1.141 6.59 4.651 6.646 8.81v2.969l.001.108a22.87 22.87 0 0 0 .633 5.234l.026.105.386 1.571.043.002a2.662 2.662 0 0 1 2.547 2.657 2.661 2.661 0 0 1-2.615 2.658h-6.467v.244a3.879 3.879 0 0 1-3.81 3.81h-.112a3.879 3.879 0 0 1-3.81-3.81v-.244H2.658A2.661 2.661 0 0 1 0 25.289a2.662 2.662 0 0 1 2.547-2.657l.043-.002.386-1.571c.429-1.746.65-3.542.658-5.34v-2.95c0-4.213 2.807-7.783 6.648-8.936l.116-.034v-1.24A2.56 2.56 0 0 1 12.94 0zm-2.608 27.947v.18a2.627 2.627 0 0 0 2.616 2.623 2.627 2.627 0 0 0 2.615-2.58V27.945zM12.948 1.25h.008a1.31 1.31 0 0 0-1.308 1.286v.996a9.345 9.345 0 0 1 1.22-.091H13.027c.384.004.762.03 1.134.08l.085.011v-.996a1.31 1.31 0 0 0-1.285-1.286zm10.29 25.447h.023a1.41 1.41 0 0 0 0-2.818H15.748a.625.625 0 0 1 0-1.25H22.018l-.312-1.273-.026-.107a24.122 24.122 0 0 1-.669-5.529v-2.952l-.001-.133c-.07-4.35-3.593-7.873-7.938-7.943l-.124-.001h-.125c-4.345.071-7.867 3.595-7.937 7.944l-.001.133v2.843c0 1.897-.225 3.794-.67 5.638l-.025.107-.313 1.273h6.253a.625.625 0 0 1 .018 1.25h-7.49a1.41 1.41 0 0 0-.023 2.818h.023zm-10.27-2.818a.631.631 0 0 1-.592-.425.63.63 0 0 1 .21-.696.63.63 0 0 1 .702-.04.63.63 0 0 1 .292.658.63.63 0 0 1-.613.503z"/></g><g><path fill="#f36c48" d="M22 18a5 5 0 1 0 0-10 5 5 0 0 0 0 10z"/></g></g></g></svg>