<svg xmlns="http://www.w3.org/2000/svg" width="189" height="30" viewBox="0 0 189 30"><g><g><g><path fill="#20212a" d="M69.078 22.942a4.608 4.608 0 0 1-1.75-1.12c-.481-.496-.855-1.118-1.122-1.865-.267-.748-.4-1.617-.4-2.609 0-1.708.236-3.218.71-4.53.472-1.312 1.097-2.414 1.875-3.307.778-.892 1.66-1.567 2.643-2.025a7.067 7.067 0 0 1 3.009-.686c1.053 0 1.983.198 2.791.595a4.062 4.062 0 0 1 1.854 1.83l-.893.48c-.777-1.25-2.013-1.875-3.706-1.875-.9 0-1.785.202-2.654.606-.87.404-1.644 1.003-2.323 1.796-.679.793-1.228 1.781-1.647 2.963-.42 1.182-.63 2.551-.63 4.107 0 1.709.397 2.975 1.19 3.799.794.823 1.884 1.235 3.272 1.235.702 0 1.373-.122 2.014-.366.64-.244 1.22-.58 1.739-1.007a6.012 6.012 0 0 0 1.315-1.521 5.833 5.833 0 0 0 .744-1.91l.137-.687h-4.484l.183-1.007h5.514l-.252 1.441a8.348 8.348 0 0 1-.743 2.231 7.031 7.031 0 0 1-1.407 1.934 6.814 6.814 0 0 1-2.048 1.361c-.786.343-1.667.515-2.643.515-.839 0-1.602-.126-2.288-.378zm-13.82-.022a4.66 4.66 0 0 1-1.704-1.167c-.473-.511-.839-1.144-1.098-1.9-.26-.755-.389-1.628-.389-2.62 0-1.708.236-3.214.71-4.518.472-1.304 1.09-2.395 1.853-3.272.762-.877 1.636-1.537 2.62-1.98a7.27 7.27 0 0 1 3.008-.663c1.007 0 1.919.19 2.735.572a4.203 4.203 0 0 1 1.887 1.693l-.846.595c-.763-1.22-2.006-1.83-3.73-1.83a5.693 5.693 0 0 0-2.849.743c-.877.496-1.64 1.179-2.288 2.048-.648.87-1.155 1.884-1.521 3.043-.366 1.16-.55 2.403-.55 3.73 0 1.708.397 2.96 1.19 3.752.794.794 1.907 1.19 3.341 1.19 1.663 0 3.081-.557 4.256-1.67l.71.572a6.866 6.866 0 0 1-2.369 1.567 7.5 7.5 0 0 1-2.757.515c-.809 0-1.545-.133-2.208-.4zm-11.347.067l2.608-14.813H41.6l.183-1.03H52.56l-.183 1.03h-4.85l-2.61 14.813z"/></g><g><path fill="#20212a" d="M175.954 23.963l2.297-13.116h2.696l3.132 7.6 1.234-7.6h2.924l-2.297 13.116h-2.658l-3.113-7.544-1.291 7.544zm-14.084 0l-1.157-13.116h3.073l.398 7.165 3.13-7.165h2.6l.587 7.146 2.96-7.146h3.167l-5.747 13.116h-2.523l-.702-7.165-3.168 7.165zm-5.927-8.014c0-1.82-.57-2.56-2.106-2.56-1.953 0-3.793 2.162-3.793 5.52 0 1.745.569 2.523 2.01 2.523 2.144 0 3.889-2.239 3.889-5.483zm-8.878 3.111c0-5.615 3.412-8.46 7.032-8.46 2.786 0 4.814 1.859 4.814 5.292 0 5.293-3.336 8.328-7.031 8.328-2.787 0-4.815-1.84-4.815-5.16zm-4.589-2.276c0-2.485-1.463-3.016-3.44-3.016h-.57l-1.292 7.303h.779c2.338 0 4.523-1.802 4.523-4.287zm-8.717 7.18l2.296-13.117h3.774c3.32 0 5.71 2.483 5.71 5.686 0 4.303-3.566 7.43-7.74 7.43zm-14.084 0l-1.157-13.117h3.071l.398 7.165 3.128-7.165h2.598l.587 7.146 2.958-7.146h3.165l-5.744 13.116h-2.521l-.701-7.165-3.166 7.165zm-5.927-8.015c0-1.82-.569-2.56-2.105-2.56-1.954 0-3.794 2.162-3.794 5.52 0 1.745.569 2.523 2.01 2.523 2.144 0 3.89-2.239 3.89-5.483zm-8.877 3.111c0-5.615 3.414-8.46 7.037-8.46 2.789 0 4.818 1.859 4.818 5.292 0 5.293-3.338 8.328-7.037 8.328-2.789 0-4.818-1.84-4.818-5.16zm-12.68 4.903l2.295-13.116h2.921l-.892 4.966h3.87l.892-4.966h2.94l-2.295 13.116h-2.94l.891-5.231h-3.87l-.891 5.231zM79.7 21.83l2.314-1.726c.664.626 1.67 1.233 3.339 1.233 1.442 0 2.447-.513 2.447-1.423 0-.949-1.12-1.328-2.182-1.574-2.124-.456-3.85-1.575-3.85-3.794 0-1.992 1.84-3.908 5.178-3.908 2.656 0 3.908 1.12 4.59 2.162l-2.332 1.86c-.74-.74-1.442-1.215-2.75-1.215-1.063 0-1.803.437-1.803 1.1 0 .513.816.892 2.428 1.328 1.954.494 3.642 1.48 3.642 3.908 0 2.96-3.016 4.306-5.615 4.306-3.338 0-4.742-1.1-5.406-2.257z"/></g><g><path fill="#20212a" d="M4.523 13.017l3.599 13.427-.96.257-3.598-13.427zm27.462-3.972l.96.257-3.598 13.438-.96-.258zm-1.727 18.378a3.453 3.453 0 0 1-1.62 2.11 3.448 3.448 0 0 1-2.637.348l-8.243-2.21-8.243 2.21a3.48 3.48 0 0 1-4.256-2.458L.12 8.24a3.48 3.48 0 0 1 2.457-4.255l5.939-1.592C8.973 1.009 10.265 0 11.801 0h11.915c1.536 0 2.827 1.009 3.286 2.393l5.938 1.592a3.478 3.478 0 0 1 2.457 4.255zm-20.94-4.08a2.486 2.486 0 0 0 2.483 2.484h11.915a2.486 2.486 0 0 0 2.482-2.484V3.476A2.486 2.486 0 0 0 23.716.993H11.801a2.486 2.486 0 0 0-2.483 2.483zm6.522 3.824l-1.3-.348H11.8a3.48 3.48 0 0 1-3.475-3.477V3.472L2.833 4.944a2.485 2.485 0 0 0-1.755 3.042l5.14 19.19a2.487 2.487 0 0 0 3.04 1.756zM27.185 3.472l.001.003v19.867a3.48 3.48 0 0 1-3.473 3.477h-2.738l-1.3.348 6.579 1.765c.64.17 1.308.083 1.882-.249a2.469 2.469 0 0 0 1.156-1.508l5.137-19.189a2.487 2.487 0 0 0-1.755-3.042z"/></g><g><path fill="#20212a" d="M20.395 20.847l-1.274-6.693 3.106.544-6.905-9.738 1.074 6.658-3.106-.544z"/></g></g></g></svg>