<svg xmlns="http://www.w3.org/2000/svg" width="16" height="16" viewBox="0 0 16 16"><g><g><path fill="#f36c48" d="M11.17 12.329h1.775v1.566h-1.776zm-2.663 0h1.777v1.566H8.507zm-5.69 0h1.775v1.566H2.817zm0-2.654h1.775v1.566H2.817zm2.82 2.654h1.775v1.566H5.637zm5.532-2.654h1.776v1.566h-1.776zm-2.662 0h1.777v1.566H8.507zm-2.87 0h1.775v1.566H5.637zm5.532-2.602h1.776V8.64h-1.776zm-2.662 0h1.777V8.64H8.507zm-2.87 0h1.775V8.64H5.637zM2.817 2.27V1.11c0-.616.496-1.11 1.11-1.11.612 0 1.11.494 1.11 1.11v1.16c0 .613-.498 1.107-1.11 1.107a1.106 1.106 0 0 1-1.11-1.107zm12.954 13.727L14.646 16H0V1.892l2.254.028v.564c0 .932.757 1.69 1.69 1.69.932 0 1.69-.759 1.69-1.69V1.92h4.508v.564a1.69 1.69 0 0 0 3.378 0V1.92h2.234zm-1.125-1.12V5.863H1.127v9.012zM10.702 2.27V1.11c0-.616.496-1.11 1.11-1.11.613 0 1.11.495 1.11 1.11v1.16c0 .613-.497 1.107-1.11 1.107a1.107 1.107 0 0 1-1.11-1.107z"/></g></g></svg>