<?xml version="1.0" encoding="utf-8"?>
<svg viewBox="0 0 50 50" xmlns="http://www.w3.org/2000/svg">
  <rect fill="none" height="50" width="50" style=""/>
  <g style="" transform="matrix(1.004595, 0, 0, 0.992833, -1.02169, 0.322505)">
    <rect x="1.191" y="-0.208" width="49.424" height="50.185" style="fill: rgb(216, 216, 216);"/>
    <path d="M 30.312 31.537 C 31.897 35.468 42.546 34.365 43.039 41.946 L 8.66 41.946 C 9.154 34.365 19.848 35.468 21.433 31.537 C 21.566 30.192 21.516 29.253 21.516 28.024 C 20.854 27.704 19.623 25.665 19.424 23.944 C 18.905 23.905 18.087 23.438 17.846 21.593 C 17.718 20.602 18.232 20.045 18.544 19.869 C 16.788 13.635 17.754 8.191 25.764 8.055 C 27.766 8.055 29.307 8.548 29.909 9.523 C 35.755 10.272 34 17.525 33.155 19.869 C 33.468 20.045 33.982 20.602 33.852 21.593 C 33.613 23.438 32.794 23.905 32.275 23.944 C 32.075 25.666 30.891 27.704 30.231 28.024 C 30.231 29.253 30.18 30.192 30.312 31.537 Z" style="fill: rgb(102, 92, 92);"/>
  </g>
</svg>