<svg xmlns="http://www.w3.org/2000/svg" width="18" height="32" viewBox="0 0 18 32"><g><g><path fill="#f36c48" d="M7.835 17.207c-4.454-1.497-6.353-3.38-6.353-6.296 0-3.127 2.188-5.403 5.853-6.087a.628.628 0 0 0 .513-.617v-2.95h2.437v2.686c0 .34.27.617.609.628 2.184.065 3.684.521 4.775.974l-.8 3.011a12.014 12.014 0 0 0-5.01-1.06c-2.852 0-3.868 1.433-3.868 2.775 0 1.681 1.748 2.629 4.978 3.793 4.199 1.482 5.835 3.302 5.835 6.49 0 3.266-2.354 5.684-6.143 6.31a.628.628 0 0 0-.526.62v3.25H7.662v-2.949a.628.628 0 0 0-.6-.627c-2.381-.107-4.458-.738-5.7-1.323l.81-3.161c1.317.624 3.4 1.37 5.842 1.37 2.601 0 4.282-1.163 4.282-2.963-.002-1.982-1.785-2.982-4.461-3.874zm.177 5.587c-2.667 0-4.874-.99-5.952-1.58a.627.627 0 0 0-.91.395L.02 26.017a.627.627 0 0 0 .304.705c1.534.848 3.865 1.478 6.081 1.66v2.99c0 .347.281.628.628.628h3.73c.347 0 .628-.28.628-.628v-3.36c4.07-.866 6.668-3.745 6.668-7.453 0-3.728-1.996-6.024-6.669-7.674-2.981-1.075-4.144-1.807-4.144-2.612 0-.965.952-1.52 2.612-1.52 2.538 0 4.217.808 5.154 1.258a.627.627 0 0 0 .879-.405l1.13-4.257a.627.627 0 0 0-.345-.732c-1.049-.48-2.692-1.113-5.135-1.271V.628A.627.627 0 0 0 10.914 0H7.22a.627.627 0 0 0-.628.628v3.07C2.65 4.613.226 7.341.226 10.913c0 4.488 3.852 6.36 7.21 7.49 2.99.996 3.602 1.792 3.602 2.682 0 1.26-1.563 1.708-3.026 1.708z"/></g></g></svg>