<svg xmlns="http://www.w3.org/2000/svg" width="12" height="14" viewBox="0 0 12 14"><g><g><g><path fill="#253b80" d="M3.282 13.164l.236-1.5-.526-.013H.48L2.226.581A.143.143 0 0 1 2.368.46h4.236c1.406 0 2.377.293 2.883.87.238.271.39.554.462.866.077.327.079.718.004 1.194l-.006.035v.305l.238.135c.181.092.344.216.48.366.204.232.335.527.39.876.058.359.04.786-.055 1.27-.108.556-.283 1.04-.52 1.437-.209.355-.49.663-.824.903a3.344 3.344 0 0 1-1.11.501c-.41.107-.876.16-1.388.16h-.33a1 1 0 0 0-.644.238.998.998 0 0 0-.336.6l-.025.134-.417 2.645-.019.097c-.005.03-.013.046-.026.056a.07.07 0 0 1-.043.016z"/></g><g><path fill="#179bd7" d="M10.404 3.46c-.013.08-.027.163-.043.248-.559 2.869-2.47 3.86-4.911 3.86H4.207a.604.604 0 0 0-.597.51l-.636 4.036-.18 1.144a.318.318 0 0 0 .314.368h2.204a.53.53 0 0 0 .524-.447l.022-.112.415-2.634.026-.145a.53.53 0 0 1 .524-.448h.33c2.136 0 3.807-.867 4.296-3.376.204-1.048.099-1.923-.442-2.539a2.108 2.108 0 0 0-.603-.465z"/></g><g><path fill="#222d65" d="M9.83 3.23a4.406 4.406 0 0 0-.544-.12 6.903 6.903 0 0 0-1.096-.08H4.87a.53.53 0 0 0-.523.448L3.64 7.952l-.02.13a.603.603 0 0 1 .597-.51h1.242c2.441 0 4.353-.992 4.911-3.86.017-.085.031-.167.044-.248a2.978 2.978 0 0 0-.585-.233z"/></g><g><path fill="#253b80" d="M4.342 3.477a.528.528 0 0 1 .523-.448h3.32c.394 0 .761.026 1.096.08.227.036.45.09.669.16.165.054.318.119.46.194.165-1.06-.002-1.782-.575-2.436C9.203.308 8.063 0 6.603 0H2.367a.605.605 0 0 0-.598.512L.004 11.696a.364.364 0 0 0 .36.42h2.615l.656-4.165z"/></g></g></g></svg>