<?xml version="1.0" encoding="UTF-8"?>
<svg width="189px" height="30px" fill="#fff" viewBox="0 0 189 30" version="1.1" xmlns="http://www.w3.org/2000/svg" xmlns:xlink="http://www.w3.org/1999/xlink">
    <!-- Generator: Sketch 57.1 (83088) - https://sketch.com -->
    <title>Shape</title>
    <desc>Created with Sketch.</desc>
    <g id="00_Landing" stroke="none" stroke-width="1" fill="#fff" fill-rule="evenodd">
        <g id="00_00_Landing" transform="translate(-302.000000, -39.000000)" fill="#fff">
            <g id="1" transform="translate(302.000000, 30.000000)">
                <g id="logo" transform="translate(0.000000, 9.000000)">
                    <path d="M23.7160851,0 C25.2521788,0 26.5430139,1.00883726 27.0017568,2.39300963 L32.9395981,3.98470857 C34.79145,4.4811836 35.8936245,6.39062655 35.3971495,8.2404925 L30.25764,27.4232946 C30.0173461,28.3199285 29.442428,29.0686128 28.6381385,29.5333135 C28.1029384,29.8431139 27.5081613,30 26.9064336,30 C26.6045768,30 26.3007341,29.9612749 26.0008631,29.880846 L17.7583847,27.6715321 L9.51491339,29.880846 C9.21504247,29.9612749 8.91318566,29.999007 8.61728654,29.999007 C7.08218576,29.999007 5.67418258,28.9742826 5.25912946,27.4232946 L0.118627024,8.2404925 C-0.376855053,6.39062655 0.725319508,4.4811836 2.57617841,3.98470857 L8.51501269,2.39300963 C8.97276266,1.00883726 10.2645907,0 11.8006844,0 L23.7160851,0 Z M8.32535923,3.47234634 L2.83335247,4.94389832 C1.510743,5.29738854 0.723333607,6.66170192 1.07781678,7.98431139 L6.21831921,27.1661205 C6.57280238,28.48873 7.93910165,29.2751465 9.25873228,28.9216562 L15.8400052,27.1581769 L14.5402336,26.8096515 L11.8006844,26.8096515 C9.88429081,26.8096515 8.32535923,25.2507199 8.32535923,23.3343263 L8.32535923,3.47234634 Z M27.1904173,3.47234634 C27.1904173,3.47333929 27.1914103,3.47433224 27.1914103,3.47532519 L27.1914103,23.3343263 C27.1914103,25.2507199 25.6314857,26.8096515 23.7160851,26.8096515 L20.9755429,26.8096515 L19.6757713,27.1581769 L26.2580372,28.9216562 C26.89849,29.0924437 27.5677383,29.005064 28.1416635,28.6734187 C28.7155886,28.3417734 29.1266699,27.8065733 29.2984503,27.1661205 L34.4389527,7.98431139 C34.7924429,6.66170192 34.0050335,5.29738854 32.6824241,4.94389832 L27.1904173,3.47234634 Z M4.52335347,13.0165823 L8.12180446,26.4442459 L7.16162176,26.7014199 L3.56416371,13.2737563 L4.52335347,13.0165823 Z M23.7160851,0.992950055 L11.8006844,0.992950055 C10.4314063,0.992950055 9.31830928,2.10704002 9.31830928,3.47532519 L9.31830928,23.3343263 C9.31830928,24.7026115 10.4314063,25.8167014 11.8006844,25.8167014 L23.7160851,25.8167014 C25.0843702,25.8167014 26.1984602,24.7026115 26.1984602,23.3343263 L26.1984602,3.47532519 C26.1984602,2.10704002 25.0843702,0.992950055 23.7160851,0.992950055 Z M111.908248,10.6 C114.696743,10.6 116.726465,12.4589972 116.726465,15.8924513 C116.726465,21.1849025 113.387858,24.22 109.688833,24.22 C106.900337,24.22 104.870615,22.3799721 104.870615,19.0603343 C104.870615,13.4454039 108.2851,10.6 111.908248,10.6 Z M154.103001,10.6 C156.891497,10.6 158.921218,12.4589972 158.921218,15.8924513 C158.921218,21.1849025 155.582611,24.22 151.883586,24.22 C149.09509,24.22 147.065368,22.3799721 147.065368,19.0603343 C147.065368,13.4454039 150.479853,10.6 154.103001,10.6 Z M86.9462953,10.6379387 C89.5036459,10.6379387 90.7593186,11.675763 91.4586185,12.6842703 L91.5368802,12.8004457 L89.203649,14.6594429 C88.463844,13.9196379 87.7619777,13.4454039 86.4530919,13.4454039 C85.3908078,13.4454039 84.6510028,13.8816992 84.6510028,14.5456267 C84.6510028,15.0577994 85.4666852,15.4371866 87.0790808,15.8734819 C89.0329248,16.3666852 90.7211978,17.3530919 90.7211978,19.7811699 C90.7211978,22.74039 87.7050696,24.0872145 85.1062674,24.0872145 C81.8753572,24.0872145 80.4565044,23.0568289 79.7666007,21.9416285 L79.7,21.8298607 L82.0142618,20.103649 C82.6781894,20.7296379 83.6835655,21.3366574 85.3528691,21.3366574 C86.7945404,21.3366574 87.7999164,20.8244847 87.7999164,19.9139554 C87.7999164,18.9654875 86.6807242,18.5861003 85.6184401,18.3394986 C83.4938719,17.884234 81.7676602,16.7650418 81.7676602,14.5456267 C81.7676602,12.553844 83.607688,10.6379387 86.9462953,10.6379387 Z M97.4070347,10.8466017 L96.5154748,15.8165738 L100.385224,15.8165738 L101.276784,10.8466017 L104.217035,10.8466017 L101.921742,23.9733983 L98.9814915,23.9733983 L99.8730514,18.7378552 L96.0033021,18.7378552 L95.1117422,23.9733983 L92.1904609,23.9733983 L94.4857534,10.8466017 L97.4070347,10.8466017 Z M180.94292,10.8466017 L184.072864,18.4533148 L185.305872,10.8466017 L188.227154,10.8466017 L185.931861,23.9733983 L183.276151,23.9733983 L180.165176,16.4235933 L178.87526,23.9733983 L175.953978,23.9733983 L178.249271,10.8466017 L180.94292,10.8466017 Z M163.785996,10.8466017 L164.184353,18.0170195 L167.314297,10.8466017 L169.9131,10.8466017 L170.50115,17.9980501 L173.46037,10.8466017 L176.628253,10.8466017 L170.880537,23.9733983 L168.357612,23.9733983 L167.655746,16.8029805 L164.487863,23.9733983 L161.870091,23.9733983 L160.71296,10.8466017 L163.785996,10.8466017 Z M136.054518,10.8466017 L139.82942,10.8466017 C143.149058,10.8466017 145.539197,13.3315877 145.539197,16.5374095 C145.539197,20.7590218 142.111439,23.8502032 138.044462,23.969803 L137.799699,23.9733983 L133.759225,23.9733983 L136.054518,10.8466017 L139.82942,10.8466017 L136.054518,10.8466017 Z M121.591243,10.8466017 L121.9896,18.0170195 L125.119544,10.8466017 L127.718346,10.8466017 L128.306397,17.9980501 L131.265617,10.8466017 L134.4335,10.8466017 L128.685784,23.9733983 L126.162859,23.9733983 L125.460993,16.8029805 L122.29311,23.9733983 L119.675338,23.9733983 L118.518207,10.8466017 L121.591243,10.8466017 Z M60.2583228,6.8 C61.2650818,6.8 62.1765038,6.99067405 62.9925888,7.37202216 C63.7270652,7.71523546 64.3101846,8.2067169 64.7419469,8.84646648 L64.8802619,9.06520776 L64.0336691,9.6601108 L63.9092503,9.47250021 C63.1387793,8.37726 61.9370573,7.82963989 60.3040846,7.82963989 C59.2820717,7.82963989 58.3325149,8.07751616 57.4554143,8.5732687 C56.5783136,9.06902124 55.8156174,9.75163435 55.1673256,10.621108 C54.5190338,11.4905817 54.0118408,12.5049677 53.6457467,13.6642659 C53.2796525,14.8235642 53.0966054,16.066759 53.0966054,17.3938504 C53.0966054,19.1022899 53.4932074,20.3531117 54.2864115,21.1463158 C55.0796155,21.9395199 56.193152,22.3361219 57.6270209,22.3361219 C59.1857813,22.3361219 60.5300334,21.8467748 61.6597771,20.8680806 L61.8828658,20.6658172 L62.5921733,21.2378393 L62.3550312,21.4650946 C61.7139898,22.0534064 61.0036465,22.5001016 60.2240015,22.8051801 C59.3469009,23.1483934 58.4278519,23.32 57.4668547,23.32 C56.6583967,23.32 55.9223949,23.1865282 55.2588492,22.9195845 C54.5953035,22.6526408 54.0270948,22.2636657 53.5542231,21.7526593 C53.0813515,21.2416528 52.7152573,20.608615 52.4559406,19.8535457 C52.1966239,19.0984765 52.0669655,18.2251893 52.0669655,17.2336842 C52.0669655,15.5252447 52.3034013,14.0189197 52.776273,12.7147091 C53.2491446,11.4104986 53.8669286,10.319843 54.6296248,9.44274238 C55.392321,8.56564174 56.2656082,7.90590951 57.2494863,7.46354571 C58.2333644,7.0211819 59.2363099,6.8 60.2583228,6.8 Z M74.0430169,6.8 C75.0955376,6.8 76.026027,6.99830102 76.834485,7.39490305 C77.5620972,7.75184488 78.1352634,8.2817662 78.5539836,8.98466704 L78.6878368,9.22537396 L77.7954822,9.70587258 L77.6688451,9.51357172 C76.8862047,8.3909505 75.6928492,7.82963989 74.0887786,7.82963989 C73.1887971,7.82963989 72.3040695,8.03175439 71.4345958,8.43598338 C70.5651221,8.84021237 69.7909855,9.4389289 69.1121858,10.232133 C68.4333862,11.025337 67.8842449,12.0130286 67.464762,13.1952078 C67.0452791,14.3773869 66.8355376,15.7464266 66.8355376,17.3023269 C66.8355376,19.0107664 67.2321397,20.2768421 68.0253437,21.100554 C68.8185478,21.9242659 69.9092034,22.3361219 71.2973105,22.3361219 C71.998991,22.3361219 72.6701637,22.2140905 73.3108285,21.9700277 C73.9514933,21.7259649 74.5311424,21.3903786 75.0497759,20.9632687 C75.5684093,20.5361588 76.0069596,20.0289658 76.3654268,19.4416898 C76.6726845,18.9383102 76.8986916,18.3985081 77.0434482,17.8222833 L77.1090557,17.5311357 L77.246341,16.8447091 L72.7616872,16.8447091 L72.9447343,15.8379501 L78.459028,15.8379501 L78.2073382,17.279446 L78.1294796,17.6592051 C77.9843555,18.2894888 77.7624321,18.9065312 77.4637094,19.5103324 C77.1052422,20.2348938 76.636184,20.8793721 76.0565349,21.4437673 C75.4768858,22.0081625 74.7942726,22.4619668 74.0086955,22.8051801 C73.2231184,23.1483934 72.3422043,23.32 71.3659532,23.32 C70.5269873,23.32 69.7642911,23.1941551 69.0778645,22.9424654 C68.3914379,22.6907756 67.8079753,22.3170545 67.3274767,21.8213019 C66.8469781,21.3255494 66.4732569,20.703952 66.2063133,19.9565097 C65.9393696,19.2090674 65.8058978,18.3395937 65.8058978,17.3480886 C65.8058978,15.6396491 66.0423336,14.1295106 66.5152052,12.8176731 C66.9880769,11.5058356 67.6134878,10.4037396 68.3914379,9.51138504 C69.1693881,8.61903047 70.0503022,7.94404432 71.0341803,7.48642659 C72.0180584,7.02880886 73.0210039,6.8 74.0430169,6.8 Z M52.5599446,7.1432133 L52.3768975,8.17285319 L47.5261496,8.17285319 L44.9177285,22.9767867 L43.9109695,22.9767867 L46.5193906,8.17285319 L41.6,8.17285319 L41.7830471,7.1432133 L52.5599446,7.1432133 Z M31.9853731,9.04478205 L32.9455558,9.30195611 L29.3471048,22.7296197 L28.3879151,22.4724456 L31.9853731,9.04478205 Z M111.642677,13.3884958 C109.688833,13.3884958 107.848805,15.5510028 107.848805,18.9085794 C107.848805,20.6537604 108.417886,21.4315042 109.859557,21.4315042 C112.003094,21.4315042 113.748276,19.1931198 113.748276,15.9493593 C113.748276,14.1283008 113.179195,13.3884958 111.642677,13.3884958 Z M153.83743,13.3884958 C151.883586,13.3884958 150.043558,15.5510028 150.043558,18.9085794 C150.043558,20.6537604 150.612639,21.4315042 152.05431,21.4315042 C154.197848,21.4315042 155.943029,19.1931198 155.943029,15.9493593 C155.943029,14.1283008 155.373948,13.3884958 153.83743,13.3884958 Z M139.032707,13.767883 L138.463626,13.767883 L137.17371,21.0710864 L137.951454,21.0710864 C140.284685,21.0710864 142.466161,19.2689972 142.466161,16.7840111 C142.466161,14.2990251 141.00552,13.767883 139.032707,13.767883 Z M15.3216853,4.96475027 L22.22666,14.7026115 L19.1207122,14.1584748 L20.3946671,20.8519511 L13.2901095,11.0783438 L16.3960573,11.6224804 L15.3216853,4.96475027 Z" id="Shape"></path>
                </g>
            </g>
        </g>
    </g>
</svg>
