<svg xmlns="http://www.w3.org/2000/svg" xmlns:xlink="http://www.w3.org/1999/xlink" version="1.1" x="0px" y="0px" viewBox="0 0 100 100" style="enable-background:new 0 0 100 100;" xml:space="preserve"><g><path d="M26.7,68.4c1.6-1.4,2.6-3.5,2.6-5.8c0-4.3-3.5-7.7-7.7-7.7s-7.7,3.5-7.7,7.7c0,2.2,1,4.3,2.6,5.8c-4.8,2-8,6.7-8,12   c0,0.6,0.4,1,1,1h24.2c0.6,0,1-0.4,1-1C34.7,75.1,31.5,70.4,26.7,68.4z M10.5,79.5c0.4-4.7,3.8-8.6,8.4-9.8   c0.4-0.1,0.7-0.5,0.8-0.9s-0.2-0.8-0.6-1c-2-0.9-3.3-3-3.3-5.2c0-3.2,2.6-5.7,5.7-5.7s5.7,2.6,5.7,5.7c0,2.2-1.3,4.2-3.3,5.2   c-0.4,0.2-0.6,0.6-0.6,1s0.3,0.8,0.8,0.9c4.7,1.1,8,5.1,8.5,9.8H10.5z"></path><path d="M54.9,68.4c1.6-1.4,2.6-3.5,2.6-5.8c0-4.3-3.5-7.7-7.7-7.7s-7.7,3.5-7.7,7.7c0,2.2,1,4.3,2.6,5.8c-4.8,2-8,6.7-8,12.1   c0,0.6,0.4,1,1,1h24.2c0.6,0,1-0.4,1-1C62.9,75.1,59.7,70.4,54.9,68.4z M38.7,79.5c0.4-4.7,3.8-8.7,8.4-9.8   c0.4-0.1,0.7-0.4,0.8-0.9c0-0.4-0.2-0.8-0.6-1c-2-0.9-3.3-3-3.3-5.2c0-3.2,2.6-5.7,5.7-5.7c3.2,0,5.7,2.6,5.7,5.7   c0,2.2-1.3,4.2-3.3,5.2c-0.4,0.2-0.6,0.6-0.6,1c0,0.4,0.3,0.8,0.8,0.9c4.7,1.1,8,5.1,8.4,9.8H38.7z"></path><path d="M83.1,68.4c1.6-1.4,2.6-3.6,2.6-5.8c0-4.3-3.5-7.7-7.7-7.7s-7.7,3.5-7.7,7.7c0,2.2,1,4.3,2.6,5.8c-4.8,2-8,6.7-8,12.1   c0,0.6,0.4,1,1,1h24.2c0.6,0,1-0.4,1-1C91.1,75.1,87.9,70.4,83.1,68.4z M66.9,79.5c0.4-4.7,3.8-8.7,8.5-9.8   c0.4-0.1,0.7-0.4,0.8-0.9c0-0.4-0.2-0.8-0.6-1c-2-0.9-3.3-3-3.3-5.2c0-3.2,2.6-5.7,5.7-5.7s5.7,2.6,5.7,5.7c0,2.2-1.3,4.2-3.3,5.2   c-0.4,0.2-0.6,0.6-0.6,1s0.3,0.8,0.8,0.9c4.7,1.1,8,5.1,8.4,9.8H66.9z"></path><path d="M85.5,18.5H15.7c-3.3,0-6.1,2.7-6.1,6.1v16.1c0,3.3,2.7,6.1,6.1,6.1h5l2.1,3.6c0.2,0.3,0.5,0.5,0.9,0.5   c0.4,0,0.7-0.2,0.9-0.5l1.9-3.6h20.6l2.1,3.6c0.2,0.3,0.5,0.5,0.9,0.5c0,0,0,0,0,0c0.4,0,0.7-0.2,0.9-0.5l1.9-3.6h20.6l2.1,3.6   c0.2,0.3,0.5,0.5,0.9,0.5c0.4,0,0.7-0.2,0.9-0.5l1.9-3.6h6.5c3.3,0,6.1-2.7,6.1-6.1V24.6C91.5,21.3,88.8,18.5,85.5,18.5z    M89.5,40.7c0,2.2-1.8,4.1-4.1,4.1h-7.1c-0.4,0-0.7,0.2-0.9,0.5l-1.3,2.5l-1.5-2.5c-0.2-0.3-0.5-0.5-0.9-0.5H52.1   c-0.4,0-0.7,0.2-0.9,0.5l-1.3,2.5l-1.5-2.5c-0.2-0.3-0.5-0.5-0.9-0.5H25.8c-0.4,0-0.7,0.2-0.9,0.5l-1.3,2.5l-1.5-2.5   c-0.2-0.3-0.5-0.5-0.9-0.5h-5.5c-2.2,0-4.1-1.8-4.1-4.1V24.6c0-2.2,1.8-4.1,4.1-4.1h69.8c2.2,0,4.1,1.8,4.1,4.1V40.7z"></path></g></svg>