<svg xmlns="http://www.w3.org/2000/svg" width="34" height="25" viewBox="0 0 34 25"><g><g><path fill="#79797f" d="M34 2.496v14.242a2.499 2.499 0 0 1-2.496 2.496h-3.433v3.078a2.499 2.499 0 0 1-2.496 2.496h-8.461a.664.664 0 1 1 0-1.328h8.461a1.17 1.17 0 0 0 1.168-1.167V8.07a1.17 1.17 0 0 0-1.168-1.167H2.495A1.17 1.17 0 0 0 1.329 8.07v14.242a1.17 1.17 0 0 0 1.168 1.168h8.614a.664.664 0 1 1 0 1.328H2.496A2.499 2.499 0 0 1 0 22.312V8.07a2.499 2.499 0 0 1 2.496-2.495h3.433v-3.08A2.499 2.499 0 0 1 8.425 0h23.08A2.499 2.499 0 0 1 34 2.496zm-1.328 14.242V2.496a1.17 1.17 0 0 0-1.168-1.168H8.424a1.17 1.17 0 0 0-1.167 1.168v3.079h18.318a2.499 2.499 0 0 1 2.496 2.495v9.836h3.433a1.17 1.17 0 0 0 1.168-1.168zm-19.738-5.421a3.11 3.11 0 0 1-3.106 3.105 3.089 3.089 0 0 1-1.803-.578 3.11 3.11 0 0 1-4.911-2.527 3.11 3.11 0 0 1 4.911-2.528 3.088 3.088 0 0 1 1.803-.578 3.11 3.11 0 0 1 3.106 3.106zm-8.492 0a1.78 1.78 0 0 0 2.684 1.53 3.087 3.087 0 0 1-.403-1.53c0-.556.146-1.078.403-1.53a1.78 1.78 0 0 0-2.684 1.53zm7.164 0a1.78 1.78 0 0 0-1.778-1.778 1.78 1.78 0 0 0-1.777 1.778c0 .98.797 1.777 1.777 1.777a1.78 1.78 0 0 0 1.778-1.777zm-4.658 10.54H3.371a.664.664 0 0 1-.664-.664v-2.55c0-.367.297-.665.664-.665h3.577c.367 0 .665.298.665.664v2.55a.664.664 0 0 1-.665.665zm-2.913-1.328h2.25v-1.222h-2.25zm8.83 1.328H9.289a.664.664 0 0 1-.664-.664v-2.55c0-.367.297-.665.664-.665h3.578c.367 0 .664.298.664.664v2.55a.664.664 0 0 1-.664.665zm-2.913-1.328h2.25v-1.222h-2.25zm8.83 1.328h-3.577a.664.664 0 0 1-.664-.664v-2.55c0-.367.298-.665.665-.665h3.577c.367 0 .664.298.664.664v2.55a.664.664 0 0 1-.664.665zm-2.912-1.328h2.249v-1.222h-2.25zm8.83 1.328h-3.577a.664.664 0 0 1-.664-.664v-2.55c0-.367.297-.665.664-.665H24.7c.367 0 .664.298.664.664v2.55a.664.664 0 0 1-.664.665zm-2.913-1.328h2.25v-1.222h-2.25zm2.913-6.302h-9.495a.664.664 0 1 1 0-1.328H24.7a.664.664 0 1 1 0 1.328zm-3.454-2.645h-6.04a.664.664 0 1 1 0-1.328h6.04a.664.664 0 1 1 0 1.328zm-7.122 13.226a.67.67 0 0 1-.625-.44.67.67 0 0 1 .195-.73.67.67 0 0 1 .78-.057.67.67 0 0 1 .3.693.67.67 0 0 1-.65.534z"/></g></g></svg>