<svg xmlns="http://www.w3.org/2000/svg" width="33" height="36" viewBox="0 0 33 36"><g><g><path fill="#fff" d="M29.433 27.955a6.296 6.296 0 0 1 2.91 5.32v2.022a.703.703 0 0 1-.703.703H20.39a.703.703 0 0 1-.703-.703v-2.022c0-2.177 1.1-4.159 2.911-5.32a3.892 3.892 0 0 1-.5-1.912v-1.607a3.922 3.922 0 0 1 3.917-3.918 3.922 3.922 0 0 1 3.918 3.918v1.607c0 .694-.182 1.346-.5 1.912zm-5.929-3.52v1.608a2.514 2.514 0 0 0 2.511 2.511 2.514 2.514 0 0 0 2.512-2.511v-1.607a2.514 2.514 0 0 0-2.512-2.511 2.514 2.514 0 0 0-2.51 2.51zm7.433 8.84a4.9 4.9 0 0 0-2.41-4.228 3.9 3.9 0 0 1-2.512.913 3.9 3.9 0 0 1-2.51-.913 4.899 4.899 0 0 0-2.411 4.228v1.319h9.843zM16.172 21.797c-6.01 0-10.899-4.89-10.899-10.899 0-1.752.404-3.425 1.2-4.974a.703.703 0 0 1 1.25.643 9.388 9.388 0 0 0-1.043 4.331c0 5.234 4.258 9.493 9.492 9.493 5.234 0 9.492-4.259 9.492-9.493s-4.258-9.492-9.492-9.492A9.387 9.387 0 0 0 11.84 2.45a.703.703 0 0 1-.643-1.251A10.78 10.78 0 0 1 16.172 0c6.01 0 10.898 4.889 10.898 10.898 0 6.01-4.889 10.899-10.898 10.899zm2.109-7.846a2.1 2.1 0 0 1-.539 1.407 2.1 2.1 0 0 1 .539 1.406c0 1.163-.946 2.11-2.11 2.11a2.112 2.112 0 0 1-2.109-2.11c0-.54.204-1.033.54-1.406a2.1 2.1 0 0 1-.54-1.407c0-.957.286-1.833.9-2.756.42-.632.983-1.28 1.942-2.24.109-.108.19-.227.244-.354.052-.125.078-.261.078-.404 0-.282-.11-.547-.308-.746-.2-.2-.465-.309-.746-.309-.282 0-.547.11-.746.309-.2.199-.309.464-.309.746 0 1.163-.946 2.109-2.11 2.109a2.112 2.112 0 0 1-2.109-2.11c0-1.408.549-2.732 1.545-3.728a5.24 5.24 0 0 1 3.729-1.545c1.408 0 2.732.549 3.728 1.545a5.239 5.239 0 0 1 1.545 3.729 5.319 5.319 0 0 1-1.558 3.742c-.531.53-1.114 1.134-1.414 1.584-.159.24-.192.365-.192.428zm-2.148-1.977c-.46.691-.664 1.3-.664 1.977a.704.704 0 0 0 1.406 0c0-.385.136-.768.428-1.207.296-.445.757-.967 1.59-1.8a3.92 3.92 0 0 0 1.146-2.748 3.842 3.842 0 0 0-1.133-2.734 3.842 3.842 0 0 0-2.734-1.133 3.842 3.842 0 0 0-2.735 1.133 3.842 3.842 0 0 0-1.132 2.735.704.704 0 0 0 1.406 0c0-.658.256-1.276.72-1.74a2.445 2.445 0 0 1 1.74-.721c.658 0 1.276.256 1.741.72.465.465.72 1.083.72 1.74A2.44 2.44 0 0 1 17.9 9.95c-.889.889-1.4 1.475-1.766 2.024zm.742 4.79a.704.704 0 1 0-1.408 0 .704.704 0 0 0 1.408 0zm-7.13 11.19a6.296 6.296 0 0 1 2.911 5.321v2.022a.703.703 0 0 1-.703.703H.703A.703.703 0 0 1 0 35.297v-2.022c0-2.177 1.1-4.159 2.91-5.32a3.892 3.892 0 0 1-.5-1.912v-1.607a3.922 3.922 0 0 1 3.918-3.918 3.922 3.922 0 0 1 3.917 3.918v1.607c0 .694-.182 1.346-.5 1.912zm-5.928-3.518v1.607a2.514 2.514 0 0 0 2.511 2.511 2.514 2.514 0 0 0 2.511-2.511v-1.607a2.514 2.514 0 0 0-2.511-2.511 2.514 2.514 0 0 0-2.511 2.51zm7.433 8.839a4.9 4.9 0 0 0-2.411-4.228 3.9 3.9 0 0 1-2.511.913 3.9 3.9 0 0 1-2.51-.913 4.899 4.899 0 0 0-2.412 4.228v1.319h9.844zM8.962 4.392a.703.703 0 1 1 .52-.23.701.701 0 0 1-.52.23z"/></g></g></svg>