<svg xmlns:dc="http://purl.org/dc/elements/1.1/" xmlns:cc="http://creativecommons.org/ns#" xmlns:rdf="http://www.w3.org/1999/02/22-rdf-syntax-ns#" xmlns:svg="http://www.w3.org/2000/svg" xmlns="http://www.w3.org/2000/svg" xmlns:sodipodi="http://sodipodi.sourceforge.net/DTD/sodipodi-0.dtd" xmlns:inkscape="http://www.inkscape.org/namespaces/inkscape" version="1.1" x="0px" y="0px" viewBox="0 0 100 100"><g transform="translate(0,-952.36218)"><path fill="ffffff"  d="M 50 8 C 46.145855 8 43 11.14586 43 15 C 43 18.85415 46.145853 22 50 22 C 53.854147 22 57 18.85415 57 15 C 57 11.14586 53.854145 8 50 8 z M 50 10 C 52.773265 10 55 12.22674 55 15 C 55 17.77327 52.773263 20 50 20 C 47.226739 20 45 17.77327 45 15 C 45 12.22674 47.226737 10 50 10 z M 25 19 C 21.145855 19 18 22.14586 18 26 C 18 29.85415 21.145853 33 25 33 C 28.854147 33 32 29.85415 32 26 C 32 22.14586 28.854145 19 25 19 z M 75 19 C 71.145855 19 68 22.14586 68 26 C 68 29.85415 71.145853 33 75 33 C 78.854147 33 82 29.85415 82 26 C 82 22.14586 78.854145 19 75 19 z M 25 21 C 27.773265 21 30 23.22674 30 26 C 30 28.77327 27.773263 31 25 31 C 22.226739 31 20 28.77327 20 26 C 20 23.22674 22.226737 21 25 21 z M 75 21 C 77.773263 21 80 23.22674 80 26 C 80 28.77327 77.773261 31 75 31 C 72.226737 31 70 28.77327 70 26 C 70 23.22674 72.226735 21 75 21 z M 50 25 C 43.382065 25 38 30.24055 38 36.75 L 38 45 A 1.0001 1.0001 0 0 0 39 46 L 44 46 L 44 56 C 44 59.3067 46.693297 62 50 62 C 53.306703 62 56 59.3067 56 56 L 56 46 L 61 46 A 1.0001 1.0001 0 0 0 62 45 L 62 36.75 C 62 30.24055 56.617935 25 50 25 z M 50 27 C 55.570075 27 60 31.33795 60 36.75 L 60 44 L 55 44 A 1.0001 1.0001 0 0 0 54 45 L 54 56 C 54 58.2333 52.233297 60 50 60 C 47.766703 60 46 58.2333 46 56 L 46 45 A 1.0001 1.0001 0 0 0 45 44 L 40 44 L 40 36.75 C 40 31.33795 44.429925 27 50 27 z M 25 36 C 18.382065 36 13 41.24059 13 47.75 L 13 56 A 1.0001 1.0001 0 0 0 14 57 L 19 57 L 19 67 C 19 70.3067 21.693297 73 25 73 C 28.306703 73 31 70.3067 31 67 L 31 57 L 36 57 A 1.0001 1.0001 0 0 0 37 56 L 37 47.75 C 37 41.24059 31.617935 36 25 36 z M 75 36 C 68.382065 36 63 41.24059 63 47.75 L 63 56 A 1.0001 1.0001 0 0 0 64 57 L 69 57 L 69 67 C 69 70.3067 71.693297 73 75 73 C 78.306703 73 81 70.3067 81 67 L 81 57 L 86 57 A 1.0001 1.0001 0 0 0 87 56 L 87 47.75 C 87 41.24059 81.617935 36 75 36 z M 25 38 C 30.570075 38 35 42.33799 35 47.75 L 35 55 L 30 55 A 1.0001 1.0001 0 0 0 29 56 L 29 67 C 29 69.2333 27.233297 71 25 71 C 22.766703 71 21 69.2333 21 67 L 21 56 A 1.0001 1.0001 0 0 0 20 55 L 15 55 L 15 47.75 C 15 42.33799 19.429925 38 25 38 z M 75 38 C 80.570075 38 85 42.33799 85 47.75 L 85 55 L 80 55 A 1.0001 1.0001 0 0 0 79 56 L 79 67 C 79 69.2333 77.233297 71 75 71 C 72.766703 71 71 69.2333 71 67 L 71 56 A 1.0001 1.0001 0 0 0 70 55 L 65 55 L 65 47.75 C 65 42.33799 69.429925 38 75 38 z M 37.8125 64 A 1.0001 1.0001 0 0 0 37 65 L 37 75 L 16 75 A 1.0001 1.0001 0 0 0 15 76 L 15 91 A 1.0001 1.0001 0 0 0 16 92 L 84 92 A 1.0001 1.0001 0 0 0 85 91 L 85 76 A 1.0001 1.0001 0 0 0 84 75 L 63 75 L 63 65 A 1.0001 1.0001 0 0 0 62 64 L 38 64 A 1.0001 1.0001 0 0 0 37.90625 64 A 1.0001 1.0001 0 0 0 37.8125 64 z M 39 66 L 61 66 L 61 76 A 1.0001 1.0001 0 0 0 62 77 L 83 77 L 83 90 L 17 90 L 17 77 L 38 77 A 1.0001 1.0001 0 0 0 39 76 L 39 66 z " transform="translate(0,952.36218)"/></g></svg>