<svg xmlns="http://www.w3.org/2000/svg" width="32" height="36" viewBox="0 0 32 36"><g><g><path d="M18.93 6.175a.706.706 0 0 1-.836.543l-.488-.103-.103.487a.706.706 0 0 1-1.381-.293l.103-.488-.487-.104a.706.706 0 0 1 .293-1.38l.488.103.103-.487a.706.706 0 0 1 1.381.293l-.103.488.487.103a.706.706 0 0 1 .544.838zm-5.279 20.474c0 .39-.316.706-.706.706h-1.112v3.107c0 .591-.23 1.147-.648 1.565a2.215 2.215 0 0 1-3.776-1.564v-3.108H6.295a.706.706 0 0 1 0-1.412h1.112V15.54c0-.323.133-.637.365-.863l1.011-.978a1.2 1.2 0 0 1 1.671-.001l1.012.978c.232.226.366.541.366.864v10.403h1.112c.39 0 .706.316.706.706zm-3.23 3.813v-3.107H8.82v3.107a.801.801 0 0 0 1.6 0zm0-4.519V15.63l-.8-.775-.801.775v10.314zM.702 22.48A.702.702 0 0 1 0 21.777v-.014a.702.702 0 0 1 1.405 0v.014a.702.702 0 0 1-.703.702zM31.42 6.7l-4.89 19.861a2.717 2.717 0 0 1-1.243 1.689 2.727 2.727 0 0 1-2.07.318l-3.94-.971v5.66A2.743 2.743 0 0 1 16.537 36H2.74C1.23 36 0 34.77 0 33.259v-8.676a.702.702 0 0 1 1.405 0v8.676c0 .737.598 1.336 1.334 1.336h13.799c.736 0 1.335-.6 1.335-1.336V12.802c0-.274-.083-.528-.225-.74l-.01-.014a1.334 1.334 0 0 0-1.1-.581H2.739c-.736 0-1.334.599-1.334 1.335v6.166a.702.702 0 0 1-1.405 0v-6.166c0-1.51 1.23-2.74 2.74-2.74h8l1.963-7.975A2.719 2.719 0 0 1 13.945.399a2.72 2.72 0 0 1 2.071-.32l13.399 3.305a2.747 2.747 0 0 1 2.005 3.317zm-12.322 5.128c.115.302.18.63.18.973v4.754l3.001-2.575-1.745-4.383zm9.98-7.081L15.68 1.443a1.325 1.325 0 0 0-1.007.157 1.325 1.325 0 0 0-.606.822l-1.88 7.64h4.35c.659 0 1.264.234 1.737.623l2.092-1.793a.703.703 0 0 1 1.11.274l2.294 5.762a.702.702 0 0 1-.196.792l-4.297 3.687v6.744l4.275 1.054c.344.085.702.03 1.008-.156.306-.185.52-.477.605-.821l4.891-19.862a1.34 1.34 0 0 0-.978-1.618zm-4.874 18.16a.706.706 0 0 1-.837.545l-.487-.104-.104.487a.706.706 0 0 1-1.38-.293l.103-.488-.488-.103a.706.706 0 0 1 .294-1.381l.487.104.104-.488a.706.706 0 0 1 1.38.294l-.103.487.488.104a.706.706 0 0 1 .543.837z"/></g></g></svg>