<svg xmlns="http://www.w3.org/2000/svg" width="34" height="29" viewBox="0 0 34 29"><g><g><path fill="#79797f" d="M5.777 6.164a2.26 2.26 0 0 1 2.258 2.258 2.26 2.26 0 0 1-2.258 2.257A2.26 2.26 0 0 1 3.52 8.422a2.26 2.26 0 0 1 2.257-2.258zm0 1.328a.93.93 0 0 0 0 1.86.93.93 0 0 0 0-1.86zm4.118.93a2.26 2.26 0 0 1 2.257-2.258 2.26 2.26 0 0 1 2.258 2.258 2.26 2.26 0 0 1-2.258 2.257 2.26 2.26 0 0 1-2.257-2.257zm1.328 0a.93.93 0 0 0 1.859 0 .93.93 0 0 0-1.86 0zm7.304 2.257a2.26 2.26 0 0 1-2.257-2.257 2.26 2.26 0 0 1 2.257-2.258 2.26 2.26 0 0 1 2.258 2.258 2.26 2.26 0 0 1-2.258 2.257zm0-1.328a.93.93 0 0 0 0-1.859.93.93 0 0 0 0 1.86zM34 11.201v10.202c0 1.831-1.49 3.32-3.32 3.32h-3.04l-2.096 3.632a.664.664 0 0 1-1.15 0l-2.097-3.631h-9.281c-1.831 0-3.32-1.49-3.32-3.32v-4.56H9.21l-2.097 3.631a.664.664 0 0 1-1.15 0l-2.097-3.632H3.32c-1.83 0-3.32-1.49-3.32-3.32V3.32C0 1.49 1.49 0 3.32 0h5.844a.664.664 0 1 1 0 1.328H3.32A1.994 1.994 0 0 0 1.328 3.32v10.203c0 1.099.894 1.992 1.992 1.992h.93c.237 0 .456.127.575.332l1.714 2.968 1.713-2.968a.664.664 0 0 1 .575-.332h12.157a1.994 1.994 0 0 0 1.993-1.992V3.32a1.994 1.994 0 0 0-1.993-1.992h-5.843a.664.664 0 1 1 0-1.328h5.843c1.831 0 3.32 1.49 3.32 3.32v4.56h6.376c1.83 0 3.32 1.49 3.32 3.32zm-1.328 0a1.994 1.994 0 0 0-1.992-1.993h-6.375v4.315c0 1.83-1.49 3.32-3.32 3.32h-9.962v4.56c0 1.099.894 1.992 1.993 1.992h9.664c.237 0 .457.127.575.332l1.714 2.968 1.713-2.968a.664.664 0 0 1 .576-.332h3.422a1.994 1.994 0 0 0 1.992-1.992zM11.682 1.133a.669.669 0 0 1-.194-.47.67.67 0 0 1 .195-.47.67.67 0 0 1 .47-.194.669.669 0 0 1 .664.664.669.669 0 0 1-.195.47.669.669 0 0 1-.47.194.67.67 0 0 1-.47-.194z"/></g></g></svg>