<?xml version="1.0" encoding="UTF-8"?>
<svg version="1.1" viewBox="0 0 1000 1000" xmlns="http://www.w3.org/2000/svg">
 <g>
  <rect fill="#00000000"/>
  <path fill="ffffff" d="m590.82 475.43c2.4102 2.5078 5.7227 3.9219 9.1836 3.9219 3.4609 0 6.7695-1.4141 9.1758-3.9219l59.133-61.766c18.902-19.746 18.902-51.855 0-71.598-18.055-18.879-49.484-19.59-68.309-1.7773-9.1055-8.6211-20.828-13.348-33.266-13.348h-0.015625c-13.27 0.015625-25.711 5.375-35.035 15.121-18.902 19.738-18.902 51.855 0 71.598zm-7.375-115.8 7.3906 7.7148c4.793 5.0117 13.543 5.0117 18.332 0l7.4062-7.7148c8.9766-9.4023 24.41-9.4023 33.387 0 9.6367 10.059 9.6367 26.418 0 36.477l-49.961 52.176-49.961-52.176c-9.6367-10.059-9.6367-26.418 0-36.477 4.4883-4.6836 10.406-7.2852 16.688-7.2852h0.015626c6.2734 0 12.207 2.5898 16.703 7.2852zm321.12 409.85c-0.046875-0.25-0.039062-0.49219-0.097656-0.74219-0.23438-1.0273-0.57422-2.0117-1.0352-2.9336-0.015626-0.023438-0.015626-0.054688-0.023438-0.074219l-72.641-144.4c-4.1953-9.1367-13.211-14.984-23.367-14.984h-4.1953c0-28.762-19.242-53.09-45.508-60.863 4.6797-8.0391 7.4141-17.676 7.4141-28.031 0-28.016-19.941-50.809-44.449-50.809-24.508 0-44.449 22.785-44.449 50.809 0 12.145 3.7578 23.293 10 32.043-20.934 10.391-35.398 31.945-35.398 56.852l-101.61 0.003906c0-24.914-14.457-46.461-35.398-56.852 6.2422-8.75 10-19.898 10-32.043 0-28.016-19.941-50.809-44.449-50.809-24.508 0-44.449 22.785-44.449 50.809 0 10.359 2.7422 19.996 7.4219 28.031-26.277 7.7852-45.516 32.102-45.516 60.863h-4.1953c-10.156 0-19.309 5.8398-23.246 14.984l-6.9844 13.594c-1.5273 3.0547-1.7852 6.4766-0.63672 9.6523 0.99609 3.2812 3.2812 5.9336 6.3008 7.457 0.015625 0.007813 0.03125 0.023438 0.046875 0.03125 6.0898 3.0547 13.965 0.38672 17.02-5.7227l7.1094-13.957 0.38672-0.63672 414.92-0.12109 64.008 127.12h-47.375c-7.7539-5.8555-16.656-9.8555-26.215-11.621 3.3477-8.0703 5.2656-17.02 5.2656-26.48 0-35.012-25.633-63.496-57.156-63.496-31.512 0-57.156 28.492-57.156 63.496 0 10.672 2.4023 20.715 6.6133 29.547-5.6211 2.0547-11.012 4.9141-16.02 8.5547l-160.14 0.003907c-4.6016-3.4766-9.6289-6.2656-14.934-8.375 4.2539-8.8711 6.6797-18.984 6.6797-29.73 0-35.012-25.633-63.496-57.156-63.496-31.52 0-57.156 28.492-57.156 63.496 0 9.4531 1.918 18.395 5.2656 26.465-9.6289 1.707-19.051 5.5859-27.379 11.637l-46.199 0.003907 10.914-21.59c1.5273-3.0547 1.7852-6.4766 0.76953-9.7695-1.1406-3.1758-3.3008-5.8555-6.3477-7.3672-6.0977-3.0547-13.844-0.50781-17.02 5.5859l-0.13672 0.12891-20.062 40.008c-0.023438 0.054688-0.03125 0.10547-0.058594 0.15234-0.42188 0.85547-0.73438 1.7383-0.96094 2.6367-0.023437 0.11328-0.074218 0.21875-0.097656 0.32422-0.17188 0.83984-0.27344 1.707-0.27344 2.6055v0.30078c0 0.097656-0.007813 0.1875 0 0.28125v50.219c0 7.0195 5.6836 12.695 12.703 12.695h38.102v25.398c0 7.0195 5.6758 12.703 12.695 12.703s12.703-5.6836 12.703-12.703l0.003906-25.418v-12.559-0.13672c0.007812-4.625 0.39453-8.8281 1.0508-12.703 1.9258-11.336 6.3867-19.559 11.957-25.398 9.0078-9.4531 20.867-12.695 29.496-12.695h5.9023c9.5391 7.9336 21.332 12.695 34.145 12.695 12.566 0 24.168-4.5859 33.605-12.258 8.4727 1.3008 16.141 5.707 22.234 12.258 6.1602 6.6289 10.672 15.418 12.727 25.398 0.80859 3.8984 1.2773 7.9648 1.2773 12.168v38.629c0 7.0195 5.6836 12.703 12.703 12.703 7.0195 0 12.695-5.6836 12.695-12.703l-0.003907-25.398h101.61v25.398c0 7.0195 5.6758 12.703 12.695 12.703 7.0195 0 12.703-5.6836 12.703-12.703v-37.957c0-0.054687 0.007812-0.089843 0.007812-0.13672 0.007813-4.625 0.39453-8.8281 1.0586-12.703 1.9258-11.336 6.3867-19.559 11.957-25.398 7.0039-7.3438 15.719-10.957 23.312-12.184 9.4297 7.625 20.992 12.184 33.523 12.184 12.809 0 24.605-4.7617 34.145-12.695h6.9453c10.535 0 20.133 4.8281 27.457 12.695 6.1602 6.6289 10.672 15.418 12.734 25.398 0.80078 3.8984 1.2773 7.9648 1.2773 12.168v38.629c0 7.0195 5.6836 12.703 12.703 12.703 7.0195 0 12.703-5.6836 12.703-12.703l-0.003907-25.398h38.094c7.0195 0 12.703-5.6758 12.703-12.695v-50.801c-0.003906-0.67969-0.14844-1.3203-0.25391-1.9727zm-25.152 40.07h-26.352c-1.3086-9.1133-4.0352-17.684-7.957-25.398h34.301l0.003906 25.398zm-203.21-203.2c0-21.008 17.094-38.094 38.102-38.094h25.398c21.008 0 38.094 17.094 38.094 38.094zm44.453-114.3c10.332 0 19.051 11.637 19.051 25.406s-8.7227 25.398-19.051 25.398c-10.332 0-19.051-11.637-19.051-25.398 0.007813-13.766 8.7266-25.406 19.051-25.406zm-298.46 114.3c0-21.008 17.094-38.094 38.102-38.094h25.398c21.008 0 38.094 17.094 38.094 38.094zm76.207-88.898c0 13.77-8.7148 25.398-19.051 25.398-10.332 0-19.051-11.637-19.051-25.398 0-13.77 8.7148-25.406 19.051-25.406 10.332 0 19.051 11.641 19.051 25.406zm224.05 228.6c-5.0469-6.75-8.1484-15.637-8.1484-25.398 0-21.008 14.238-38.094 31.746-38.094 17.516 0 31.746 17.094 31.746 38.094 0 9.7656-3.0977 18.652-8.1484 25.398-5.8203 7.7773-14.223 12.703-23.602 12.703-9.3633 0-17.773-4.9258-23.594-12.703zm-70.801 63.504h-103.39c-1.3164-9.1133-4.0352-17.684-7.957-25.398h118.43c-3.4648 7.3438-5.9102 15.801-7.082 25.398zm-221.3-63.504c-5.0469-6.75-8.1523-15.637-8.1523-25.398 0-21.008 14.238-38.094 31.746-38.094 17.512 0 31.746 17.094 31.746 38.094 0 9.7656-3.0977 18.652-8.1523 25.398-5.8203 7.7773-14.23 12.703-23.602 12.703-9.3633 0-17.773-4.9258-23.586-12.703zm-83.508 63.504h-26.246v-25.398h33.32c-3.4609 7.3438-5.9023 15.801-7.0742 25.398zm-7.9648-119.51c-1.1406-3.3008-0.88281-6.7344 0.64062-9.7852 3.0391-5.9609 10.906-8.6289 17.125-5.5859 0.007813 0 0.015625 0 0.015625 0.007813 2.918 1.5273 5.207 4.1875 6.3477 7.3672 1.0117 3.1758 0.75391 6.7344-0.75391 9.6523-2.1758 4.3164-6.4844 6.9844-11.312 6.9844-2.0312 0-4.0664-0.37109-5.7148-1.2695-0.015624 0-0.015624-0.007813-0.03125-0.015625-3.0117-1.5312-5.3047-4.1992-6.3164-7.3555z"/>
 </g>
</svg>
