<svg xmlns="http://www.w3.org/2000/svg" width="32" height="32" viewBox="0 0 32 32"><g><g><path fill="#79797f" d="M7.716 24.108a3.812 3.812 0 0 0-1.455 3.006.625.625 0 0 1-1.25 0c0-1.563.703-3.016 1.929-3.986a.625.625 0 0 1 .776.98zM32 31.375c0 .345-.28.625-.625.625H.625a.625.625 0 0 1 0-1.25h1.75v-3.636c0-1.727.596-3.419 1.678-4.764a7.625 7.625 0 0 1 4.294-2.66l2.137-.469a2.413 2.413 0 0 0 1.885-2.343v-.261a5.493 5.493 0 0 1-2.667-3.83h-.293c-.984 0-1.784-.8-1.784-1.784V9.82c0-.983.8-1.784 1.784-1.784h.216V5.48A5.485 5.485 0 0 1 15.105 0h1.79a5.485 5.485 0 0 1 5.48 5.48v2.556h.216c.984 0 1.784.8 1.784 1.784v1.183c0 .983-.8 1.783-1.784 1.783h-.293a5.494 5.494 0 0 1-2.7 3.85v.24c0 1.12.794 2.105 1.887 2.344l2.163.473c.638.14 1.255.36 1.834.656a.625.625 0 1 1-.569 1.113 6.354 6.354 0 0 0-1.532-.548l-2.163-.473a3.6 3.6 0 0 1-1.11-.446A6.26 6.26 0 0 1 16 21.516a6.26 6.26 0 0 1-4.121-1.532 3.6 3.6 0 0 1-1.128.458l-2.137.47c-2.89.633-4.989 3.242-4.989 6.202v3.636h24.75v-3.632c0-.993-.236-1.984-.683-2.866a.625.625 0 1 1 1.115-.565 7.629 7.629 0 0 1 .818 3.43v3.633h1.75c.345 0 .625.28.625.625zm-9.625-19.839h.216c.295 0 .534-.24.534-.533V9.82a.534.534 0 0 0-.534-.534h-.216zm-12.75-2.25h-.216a.534.534 0 0 0-.534.534v1.183c0 .294.24.533.534.533h.216zm9.533 9.873a3.654 3.654 0 0 1-.798-2.008c-.466.13-.957.199-1.464.199h-1.792c-.518 0-1.02-.072-1.496-.208a3.652 3.652 0 0 1-.786 2.001A5.018 5.018 0 0 0 16 20.267c1.162 0 2.264-.39 3.158-1.108zM10.875 8.036h2.592c2.823 0 5.477-1.099 7.473-3.095a.624.624 0 0 1 .136-.103 4.236 4.236 0 0 0-4.18-3.588h-1.792a4.234 4.234 0 0 0-4.229 4.23zm4.23 8.064h1.79a4.234 4.234 0 0 0 4.23-4.23v-5.4a11.751 11.751 0 0 1-3.135 1.917c-1.441.597-2.963.9-4.523.9h-2.592v2.584a4.234 4.234 0 0 0 4.23 4.229zm12.342 6.586a.623.623 0 0 1-.883-.01l-.038-.037a.625.625 0 0 1 .886-.882l.045.045a.625.625 0 0 1-.01.884zm-18.175.686l-.028.006a.625.625 0 0 1-.271-1.22l.03-.007a.625.625 0 0 1 .269 1.22z"/></g></g></svg>